<svg width="331" height="300" viewBox="0 0 331 300" fill="none" xmlns="http://www.w3.org/2000/svg">
<path d="M315.996 299.414H14.0469C12.8987 299.414 11.9609 298.476 11.9609 297.328C11.9609 296.18 12.8987 295.242 14.0469 295.242H315.996C317.145 295.242 318.082 296.18 318.082 297.328C318.082 298.476 317.145 299.414 315.996 299.414Z" fill="#003C99"/>
<path d="M15.1759 73.057C15.1951 72.8657 15.1951 72.6552 15.1951 72.4638C15.1951 68.2727 11.7886 64.8663 7.59753 64.8663C3.40645 64.8663 0 68.2727 0 72.4638C0 72.6552 0.0191327 72.8657 0.0191327 73.057H15.1759Z" fill="#80B2FF"/>
<path d="M40.1503 73.057C40.1694 72.8657 40.1694 72.6552 40.1694 72.4638C40.1694 68.2727 36.763 64.8663 32.5719 64.8663C28.3808 64.8663 24.9744 68.2727 24.9744 72.4638C24.9744 72.6552 24.9935 72.8657 24.9935 73.057H40.1503Z" fill="#80B2FF"/>
<path d="M46.6378 73.0571C46.657 72.8657 46.6761 72.6552 46.6761 72.4638C46.6761 69.4975 44.2648 67.0862 41.2985 67.0862C38.3322 67.0862 35.9209 69.4975 35.9209 72.4638C35.9209 72.6743 35.94 72.8657 35.9592 73.0571H46.6378Z" fill="#80B2FF"/>
<path d="M31.4043 73.0571C31.4617 72.5978 31.5 72.1193 31.5 71.6409C31.5 65.4786 26.5052 60.5029 20.3621 60.5029C14.1998 60.5029 9.22412 65.4978 9.22412 71.6409C9.22412 72.1193 9.2624 72.5978 9.31981 73.0571H31.4043Z" fill="#80B2FF"/>
<path d="M82.9606 24.9266C82.9797 24.7352 82.9797 24.5247 82.9797 24.3333C82.9797 20.1422 79.5733 16.7358 75.3822 16.7358C71.1911 16.7358 67.7847 20.1422 67.7847 24.3333C67.7847 24.5247 67.8038 24.7352 67.8038 24.9266H82.9606Z" fill="#80B2FF"/>
<path d="M107.935 24.9266C107.954 24.7352 107.954 24.5247 107.954 24.3333C107.954 20.1422 104.547 16.7358 100.356 16.7358C96.1652 16.7358 92.7588 20.1422 92.7588 24.3333C92.7588 24.5247 92.7779 24.7352 92.7779 24.9266H107.935Z" fill="#80B2FF"/>
<path d="M99.189 24.9266C99.2464 24.4673 99.2847 23.9888 99.2847 23.5104C99.2847 17.3482 94.2898 12.3724 88.1467 12.3724C81.9845 12.3724 77.0088 17.3673 77.0088 23.5104C77.0088 23.9888 77.0471 24.4673 77.1045 24.9266H99.189Z" fill="#80B2FF"/>
<path d="M284.917 51.8146C286.142 46.9537 286.352 42.0545 285.644 37.385L287.137 37.1553L290.065 36.7152H290.103C289.3 31.3567 287.482 26.2662 284.745 21.6923L280.879 23.9888C278.41 19.8552 275.138 16.1808 271.176 13.2719L273.856 9.65495C269.684 6.53556 264.804 4.16251 259.445 2.80376L258.335 7.18622C253.455 5.96143 248.575 5.75092 243.906 6.45901L243.236 2C237.877 2.80377 232.787 4.64096 228.213 7.35846L230.51 11.2242C226.376 13.6929 222.702 16.9654 219.793 20.9269L216.176 18.2476C213.056 22.4196 210.683 27.2996 209.325 32.6581L213.707 33.768C212.482 38.6481 212.272 43.5281 212.98 48.1976L209.822 48.676L208.54 48.8866H208.521C209.325 54.245 211.162 59.3356 213.879 63.9094L217.745 61.6129C220.214 65.7466 223.505 69.421 227.467 72.3298L224.788 75.9468C228.959 79.0662 233.82 81.4201 239.179 82.7788L240.289 78.3964C245.15 79.6212 250.068 79.8317 254.738 79.1236L255.254 82.5875L255.407 83.5826C260.766 82.7788 265.837 80.9417 270.411 78.2241L268.115 74.3584C272.248 71.8897 275.923 68.598 278.851 64.6557L282.468 67.335C285.568 63.1439 287.922 58.3021 289.3 52.9245L284.917 51.8146ZM244.403 62.1296C233.725 59.4312 227.256 48.5804 229.974 37.9017C232.672 27.2422 243.523 20.7738 254.202 23.4913C264.861 26.1896 271.33 37.0405 268.631 47.7C265.914 58.3787 255.082 64.828 244.403 62.1296Z" stroke="#B3D1FF" stroke-width="4" stroke-miterlimit="10" stroke-linejoin="round"/>
<path d="M302.103 91.8117C300.457 89.7448 298.466 88.099 296.285 86.9125L296.668 86.2236L297.414 84.8457V84.8265C294.926 83.4487 292.189 82.5875 289.414 82.2813L289.147 84.6352C286.62 84.3481 284.037 84.5586 281.568 85.2858L280.898 83.0085C278.257 83.774 275.712 85.0562 273.435 86.8742L274.908 88.7306C272.841 90.3764 271.196 92.3667 270.009 94.5483L267.923 93.4192C266.545 95.9071 265.703 98.6437 265.378 101.419L267.732 101.687C267.445 104.213 267.655 106.796 268.382 109.265L266.105 109.935C266.871 112.576 268.153 115.121 269.971 117.398L271.827 115.925C273.473 117.992 275.463 119.637 277.645 120.824L276.841 122.298L276.516 122.91C279.004 124.288 281.74 125.13 284.515 125.455L284.783 123.101C287.309 123.388 289.893 123.178 292.362 122.451L293.031 124.728C295.672 123.962 298.199 122.68 300.495 120.881L299.021 119.025C301.088 117.379 302.734 115.389 303.94 113.207L305.547 114.088L306.007 114.336C307.384 111.849 308.227 109.112 308.533 106.337L306.179 106.069C306.466 103.543 306.255 100.959 305.528 98.4715L307.805 97.8017C307.04 95.1607 305.758 92.6346 303.94 90.3572L302.103 91.8117ZM293.51 112.078C288.974 115.695 282.372 114.949 278.755 110.413C275.138 105.878 275.884 99.2753 280.439 95.6583C284.975 92.0413 291.577 92.7877 295.175 97.3232C298.792 101.859 298.045 108.461 293.51 112.078Z" stroke="#B3D1FF" stroke-width="4" stroke-miterlimit="10" stroke-linejoin="round"/>
<path d="M134.44 200.072C132.546 197.699 130.249 195.785 127.723 194.407L128.163 193.603L129.024 192.015L129.043 191.996C126.173 190.407 123.015 189.431 119.8 189.068L119.494 191.785C116.585 191.46 113.6 191.69 110.748 192.532L109.983 189.91C106.94 190.79 104.012 192.264 101.371 194.369L103.074 196.512C100.682 198.407 98.7872 200.703 97.4093 203.229L95.0171 201.909C93.4287 204.78 92.4527 207.937 92.0891 211.152L94.8066 211.459C94.4813 214.367 94.7109 217.353 95.553 220.204L92.9311 220.97C93.8115 224.013 95.285 226.941 97.3902 229.582L99.5335 227.878C101.428 230.271 103.725 232.165 106.251 233.543L105.313 235.246L104.93 235.935C107.801 237.524 110.959 238.5 114.174 238.863L114.48 236.146C117.389 236.471 120.374 236.222 123.226 235.38L123.991 238.002C127.034 237.122 129.962 235.648 132.603 233.562L130.9 231.419C133.292 229.524 135.186 227.228 136.564 224.702L138.421 225.735L138.957 226.022C140.545 223.151 141.521 219.994 141.885 216.798L139.167 216.492C139.492 213.583 139.244 210.597 138.421 207.727L141.042 206.961C140.162 203.918 138.689 200.99 136.584 198.369L134.44 200.072ZM124.546 223.458C119.302 227.63 111.686 226.768 107.514 221.525C103.342 216.3 104.203 208.684 109.447 204.512C114.671 200.34 122.288 201.201 126.46 206.445C130.632 211.669 129.771 219.286 124.546 223.458Z" stroke="#003880" stroke-width="4" stroke-miterlimit="10"/>
<path d="M249.149 42.4181C247.025 29.8257 227.639 24.1419 228.022 32.371L139.148 32.8877C132.986 32.926 128.01 38.4567 127.991 45.2696L127.799 279.013C127.799 286.056 132.871 291.816 139.148 291.874L229.878 292.658C230.433 293.845 231.486 294.917 233.151 295.816C243.561 296.046 248.537 290.898 250.374 285.099C250.967 283.549 251.293 281.807 251.274 280.009C250.91 276.927 249.8 45.3653 249.149 42.4181Z" fill="#66A2FF"/>
<path d="M232.175 295.816L128.029 295.146C121.522 295.108 116.279 289.195 116.279 281.941L116.662 41.5569C116.681 34.5718 121.848 28.888 128.221 28.8689L230.338 28.5435C236.768 28.5244 242.011 34.1891 242.069 41.2125L243.925 282.707C244.002 289.979 238.739 295.873 232.175 295.816Z" fill="white"/>
<path d="M233.61 294.075C233.17 294.132 232.73 294.151 232.289 294.151L128.182 293.366C122.594 293.328 118.039 288.142 118.039 281.807L118.403 41.6909C118.403 35.5861 122.9 30.6104 128.373 30.5912L230.491 30.1511C230.644 30.1511 230.816 30.1511 230.969 30.1702C233.533 30.285 235.945 31.4524 237.744 33.4618C239.581 35.5095 240.595 38.227 240.614 41.0977L242.432 282.841C242.49 288.563 238.7 293.386 233.61 294.075Z" fill="black"/>
<path d="M237.035 42.3033L238.796 283.205L121.522 282.496L121.809 42.3033H237.035Z" fill="#0050CC"/>
<path d="M196.235 163.519H164.83C162.17 163.519 160.008 161.338 160.008 158.697C160.008 156.037 162.189 153.874 164.83 153.874H196.235C198.895 153.874 201.057 156.056 201.057 158.697C201.076 161.357 198.895 163.519 196.235 163.519Z" fill="#FF9F34"/>
<path d="M220.118 127.675H138.937C136.277 127.675 134.115 125.493 134.115 122.852C134.115 120.192 136.296 118.03 138.937 118.03H220.118C222.778 118.03 224.941 120.212 224.941 122.852C224.96 125.493 222.778 127.675 220.118 127.675Z" fill="white"/>
<path d="M220.118 143.215H138.937C136.277 143.215 134.115 141.033 134.115 138.392C134.115 135.732 136.296 133.569 138.937 133.569H220.118C222.778 133.569 224.941 135.751 224.941 138.392C224.96 141.052 222.778 143.215 220.118 143.215Z" fill="white"/>
<path d="M154.094 138.813C154.094 139.751 153.329 140.516 152.391 140.516C151.453 140.516 150.688 139.751 150.688 138.813C150.688 137.875 151.453 137.11 152.391 137.11C153.329 137.129 154.094 137.875 154.094 138.813Z" fill="#80B2FF"/>
<path d="M159.877 139.177C160.072 138.257 159.485 137.353 158.565 137.157C157.645 136.962 156.74 137.549 156.545 138.469C156.349 139.389 156.936 140.293 157.856 140.489C158.776 140.685 159.681 140.097 159.877 139.177Z" fill="#80B2FF"/>
<path d="M165.258 140.016C165.923 139.351 165.923 138.273 165.258 137.608C164.593 136.942 163.515 136.942 162.85 137.608C162.184 138.273 162.184 139.351 162.85 140.016C163.515 140.681 164.593 140.681 165.258 140.016Z" fill="#80B2FF"/>
<path d="M171.08 140.025C171.745 139.36 171.745 138.282 171.08 137.617C170.415 136.952 169.336 136.952 168.671 137.617C168.006 138.282 168.006 139.36 168.671 140.025C169.336 140.691 170.415 140.691 171.08 140.025Z" fill="#80B2FF"/>
<path d="M176.377 140.389C177.246 140.029 177.659 139.032 177.299 138.163C176.939 137.294 175.943 136.881 175.074 137.241C174.205 137.601 173.792 138.598 174.152 139.467C174.512 140.336 175.508 140.749 176.377 140.389Z" fill="#80B2FF"/>
<path d="M183.202 139.23C183.419 138.314 182.852 137.397 181.936 137.181C181.021 136.965 180.103 137.531 179.887 138.447C179.671 139.362 180.238 140.28 181.153 140.496C182.069 140.712 182.986 140.145 183.202 139.23Z" fill="#80B2FF"/>
<path d="M188.571 140.026C189.236 139.36 189.236 138.282 188.571 137.617C187.906 136.952 186.828 136.952 186.163 137.617C185.497 138.282 185.497 139.36 186.163 140.026C186.828 140.691 187.906 140.691 188.571 140.026Z" fill="#80B2FF"/>
<path d="M194.406 140.021C195.071 139.356 195.071 138.278 194.406 137.612C193.741 136.947 192.663 136.947 191.998 137.612C191.332 138.278 191.332 139.356 191.998 140.021C192.663 140.686 193.741 140.686 194.406 140.021Z" fill="#80B2FF"/>
<path d="M199.706 140.386C200.575 140.026 200.987 139.03 200.627 138.16C200.267 137.291 199.271 136.879 198.402 137.239C197.533 137.599 197.12 138.595 197.48 139.464C197.84 140.333 198.837 140.746 199.706 140.386Z" fill="#80B2FF"/>
<path d="M192.751 99.0129C200.038 91.7262 200.038 79.9121 192.751 72.6254C185.464 65.3387 173.65 65.3387 166.363 72.6254C159.077 79.9121 159.077 91.7262 166.363 99.0129C173.65 106.3 185.464 106.3 192.751 99.0129Z" fill="white"/>
<path d="M179.585 85.0753C181.403 85.0753 183.087 84.195 184.159 82.8362C184.944 81.8602 185.422 80.5972 185.422 79.2001C185.422 75.985 182.8 73.3058 179.585 73.3058C176.313 73.3058 173.691 75.9659 173.691 79.2001C173.691 80.5972 174.15 81.8602 174.954 82.8362C176.045 84.195 177.71 85.0753 179.585 85.0753Z" fill="#005CEA"/>
<path d="M189.938 95.5626C189.938 99.2752 169.194 99.2752 169.194 95.5626V91.2375C170.017 85.3241 188.254 85.0753 189.938 91.2375V95.5626Z" fill="#005CEA"/>
<path d="M142.975 137.512V137.244C142.975 136.191 142.114 135.349 141.081 135.349C140.047 135.349 139.186 136.21 139.186 137.244V137.512H138.899V140.937C138.899 141.531 143.282 141.531 143.282 140.937V137.512H142.975ZM139.837 137.244C139.837 136.593 140.239 135.981 141.062 135.981C141.885 135.981 142.306 136.536 142.306 137.244V137.512H139.837V137.244ZM141.387 139.234V140.229C141.387 140.401 141.234 140.535 141.062 140.535C140.889 140.535 140.755 140.401 140.755 140.229V139.234C140.583 139.138 140.449 138.947 140.449 138.717C140.449 138.392 140.736 138.105 141.062 138.105C141.387 138.105 141.674 138.392 141.674 138.717C141.674 138.947 141.54 139.119 141.387 139.234Z" fill="#4D4D4D"/>
<path d="M141.062 122.489C141.444 122.489 141.808 122.297 142.018 122.01C142.191 121.8 142.286 121.532 142.286 121.245C142.286 120.556 141.731 120.001 141.062 120.001C140.373 120.001 139.818 120.556 139.818 121.245C139.818 121.532 139.913 121.8 140.086 122.01C140.315 122.297 140.679 122.489 141.062 122.489Z" fill="#4D4D4D"/>
<path d="M143.262 124.69C143.262 125.474 138.861 125.474 138.861 124.69L138.88 123.771C139.052 122.527 142.899 122.47 143.262 123.771V124.69Z" fill="#4D4D4D"/>
<path d="M169.5 124.25H151.702C150.917 124.25 150.286 123.618 150.286 122.833C150.286 122.049 150.917 121.417 151.702 121.417H169.5C170.284 121.417 170.916 122.049 170.916 122.833C170.916 123.618 170.284 124.25 169.5 124.25Z" fill="#80B2FF"/>
<path d="M192.981 124.25H175.184C174.399 124.25 173.767 123.618 173.767 122.833C173.767 122.049 174.399 121.417 175.184 121.417H192.981C193.766 121.417 194.397 122.049 194.397 122.833C194.397 123.618 193.747 124.25 192.981 124.25Z" fill="#80B2FF"/>
<path d="M155.606 213.353V248.547C155.606 252.451 203.449 252.451 203.449 248.547V213.353H155.606Z" fill="white"/>
<path d="M185.285 228.043C186.035 224.864 184.067 221.679 180.889 220.929C177.71 220.178 174.525 222.147 173.775 225.325C173.024 228.503 174.993 231.688 178.171 232.439C181.349 233.189 184.534 231.221 185.285 228.043Z" fill="#005CEA"/>
<path d="M179.528 244.451C178.188 244.451 177.097 243.361 177.097 242.021V228.472H181.939V242.021C181.958 243.361 180.867 244.451 179.528 244.451Z" fill="#005CEA"/>
<path d="M199.258 210.846H194.417V208.473C194.417 200.263 187.738 193.584 179.528 193.584C171.318 193.584 164.639 200.263 164.639 208.473V210.846H159.797V208.473C159.797 197.584 168.658 188.742 179.528 188.742C190.398 188.742 199.258 197.603 199.258 208.473V210.846Z" fill="white"/>
<path d="M275.482 144.727C263.139 157.95 243.466 168.763 222.395 173.394C222.395 174.81 222.357 182.599 222.185 218.52C221.974 266.44 267.579 289.864 274.659 293.462C281.53 290.305 327.708 266.919 327.919 218.999C328.072 183.078 328.11 175.27 328.129 173.873C307.116 169.05 287.692 158.046 275.482 144.727Z" fill="white"/>
<path d="M275.368 149.932C262.641 161.606 245.035 170.772 225.649 175.767L225.457 218.52C225.362 238.079 233.131 255.781 248.556 271.11C258.68 281.195 269.339 287.434 274.736 290.247C274.966 290.132 275.215 289.998 275.482 289.864V150.028C275.444 149.989 275.406 149.951 275.368 149.932Z" fill="#80B2FF"/>
<path d="M275.482 150.028V289.864C281.109 286.936 291.309 280.908 301.088 271.339C316.647 256.144 324.57 238.519 324.646 218.96L324.838 176.207C305.566 171.04 288.094 161.759 275.482 150.028Z" fill="#4D93FF"/>
<path d="M314.293 192.876C299.538 195.153 279.463 208.607 266.794 224.778C265.014 217.142 257.034 210.195 252.862 208.664L240.212 221.372C248.116 224.931 256.747 235.017 257.876 245.332L270.507 247.284C275.827 236.758 289.587 211.592 316.953 198.062C316.437 196.015 314.504 193.163 314.293 192.876Z" fill="#0046B3"/>
<path d="M74.0233 116.135L71.8033 125.072L71.4015 126.737C70.9613 128.842 57.0102 127.943 57.9862 125.474L58.8091 123.656L63.0958 114.241L74.0233 116.135Z" fill="#F7A58E"/>
<path d="M82.1759 102.873C82.3098 112.576 77.8125 120.46 70.77 120.422C63.7274 120.384 56.9145 114.413 56.6657 102.758C56.5126 95.333 62.4452 89.343 69.4878 89.3621C76.5303 89.3812 82.061 95.4286 82.1759 102.873Z" fill="#F7A58E"/>
<path d="M69.6983 86.6829C69.6983 86.6829 83.726 87.3718 84.8934 98.0122C86.4435 107.332 79.4584 100.481 76.5878 106.739C73.3153 113.915 76.6452 119.159 80.9128 120.575C77.1236 125.857 55.5175 125.666 49.9486 116.403C46.1402 104.787 51.537 87.3335 69.6983 86.6829Z" fill="black"/>
<path d="M79.5348 106.356C79.6497 107.791 78.578 109.054 77.1427 109.169C75.7074 109.284 74.4443 108.212 74.3295 106.777C74.2147 105.342 75.2863 104.079 76.7216 103.964C78.1569 103.849 79.42 104.921 79.5348 106.356Z" fill="#F7A58E"/>
<path d="M77.3915 286.726C78.0422 286.037 81.1616 286.018 81.4295 287.051C81.7166 288.085 81.1616 288.812 82.482 290.458C81.7357 290.668 79.0565 290.687 78.2335 290.458C77.4106 290.209 76.7408 287.415 77.3915 286.726Z" fill="white"/>
<path d="M72.2627 290.247H79.8219C80.53 258.249 80.3961 223.419 80.1473 197.182C80.0516 187.786 79.8028 183.04 78.0996 177.394C74.6549 166.007 58.4838 169.509 57.3355 179.844C56.8571 185.566 56.5126 196.742 67.0956 234.73C62.5026 251.437 70.502 271.473 72.2627 290.247Z" fill="#00050D"/>
<path d="M84.0514 290.725C82.9415 290.668 80.3388 289.596 79.8412 288.85C79.114 289.654 77.6213 289.883 75.8032 289.616C73.6598 289.29 73.3728 288.295 71.8418 288.429C71.1911 290.228 69.6027 294.285 71.1337 295.223C71.1337 295.223 80.1474 295.223 87.0369 295.223C88.453 293.921 88.4148 291.166 84.0514 290.725Z" fill="#FF9F34"/>
<path d="M38.8872 287.53C39.4422 286.936 42.0449 286.936 42.2937 287.797C42.5233 288.659 42.064 289.29 43.174 290.649C42.5425 290.84 40.3034 290.84 39.6144 290.649C38.9255 290.458 38.3322 288.123 38.8872 287.53Z" fill="white"/>
<path d="M63.8233 179.537C62.2731 167.749 41.2986 168.954 39.9015 179.25C39.404 184.8 37.8538 193.144 41.7961 234.309C33.4714 250.02 35.8253 272.564 33.3374 289.156C33.0695 291.682 40.2077 292.295 40.7627 290.037C48.3794 259.245 59.0389 224.702 63.0004 199.096C64.4357 189.814 64.5696 185.393 63.8233 179.537Z" fill="#00050D"/>
<path d="M44.5134 290.247C43.4035 290.19 41.7577 288.735 41.2601 287.989C40.5329 288.793 39.155 289.883 37.3369 289.616C35.1935 289.29 34.9065 288.295 33.3755 288.429C32.7248 290.228 31.1364 294.285 32.6674 295.223C32.6674 295.223 41.2601 295.223 48.1304 295.223C49.5657 293.921 48.8768 290.668 44.5134 290.247Z" fill="#FF9F34"/>
<path d="M99.2082 117.111L95.285 117.972C95.3807 120.039 95.1319 123.331 95.285 126.948L101.868 126.087C100.873 122.431 99.8971 119.216 99.2082 117.111Z" fill="#F7A58E"/>
<path d="M95.2849 126.948C95.1318 134.144 94.9405 137.225 94.8831 140.057L75.3438 127.522C69.3921 125.723 62.4452 137.493 69.9853 142.813C69.9853 142.813 95.993 157.491 101.849 153.262C105.007 150.965 104.184 134.565 101.868 126.068L95.2849 126.948Z" fill="#80B2FF"/>
<path d="M100.969 113.284C99.1507 111.16 95.1893 111.906 94.8831 111.963L95.2658 117.838C95.3615 120.728 98.9402 120.843 100.414 118.336C100.414 118.317 102.538 115.37 100.969 113.284Z" fill="#F7A58E"/>
<path d="M96.816 112.499C95.4955 106.107 94.175 106.968 94.175 106.968C94.175 106.968 94.3856 109.227 94.9788 113.207C95.419 115.465 96.9882 114.107 96.816 112.499Z" fill="#F7A58E"/>
<path d="M79.975 144.382C81.2955 137.933 82.0036 131.56 75.3629 127.541C71.4206 125.168 58.7325 123.465 52.8191 125.436C46.8482 128.115 48.1304 139.751 47.0205 158.142C42.9059 167.309 41.107 170.332 39.9014 179.269C39.9014 179.269 42.1022 186.006 57.6226 186.006C64.6651 186.006 75.0376 185.374 79.7645 181.796C79.2861 175.71 76.7408 169.835 75.6883 161.204C75.6691 161.185 79.8793 145.109 79.975 144.382Z" fill="#80B2FF"/>
<path d="M49.6231 126.737C42.3509 132.306 35.2318 141.033 31.8827 145.683C28.5337 150.334 19.8262 168.993 19.8262 168.993L25.3569 173.069L40.3223 152.669L58.5985 137.665C64.9712 131.196 56.723 121.321 49.6231 126.737Z" fill="#80B2FF"/>
<path d="M17.5107 173.7L21.0894 166.294C21.9315 168.514 26.046 170.562 27.2134 170.505C27.2134 170.505 23.3476 176.054 22.4099 176.992C21.4913 177.949 17.5873 176.361 17.5107 173.7Z" fill="#F7A58E"/>
<path d="M23.3475 175.767C23.3284 175.825 23.3475 175.901 23.3284 175.959C23.1561 178.657 21.0702 179.939 20.5152 180.226C20.4769 180.265 20.4195 180.265 20.3621 180.284C22.3141 179.901 22.8882 182.504 21.9122 183.116C19.0416 185.049 14.9462 182.389 14.6017 180.762C14.2572 179.116 17.5106 173.681 17.5106 173.681C19.1947 172.323 23.4623 172.533 23.3475 175.767Z" fill="#F7A58E"/>
<path d="M23.3286 175.959C23.2137 179.002 20.458 180.265 20.4197 180.265C18.8121 180.226 18.238 180.131 16.707 180.131C17.7022 179.633 19.769 178.351 18.9652 175.825C20.5345 174.619 22.8884 175.672 23.3286 175.959Z" fill="#E6856A"/>
<path d="M23.3667 175.614C23.7878 178.121 23.6155 181.719 23.0031 183.288C23.0031 183.288 21.453 183.365 21.6061 180.456C21.6444 179.691 21.5296 178.045 20.7832 177.509C18.4676 175.978 18.104 174.581 18.946 173.433C20.0943 171.902 23.2711 173.452 23.3667 175.614Z" fill="#F7A58E"/>
<path d="M16.2284 182.485C17.4723 183.346 20.8022 185.03 21.3189 184.628C21.8356 184.207 19.1947 181.394 17.4723 181.011C15.7691 180.628 15.5777 182.044 16.2284 182.485Z" fill="#F7A58E"/>
</svg>
