<svg width="430" height="932" viewBox="0 0 430 932" fill="none" xmlns="http://www.w3.org/2000/svg">
<g clip-path="url(#clip0_1_2)">
<rect width="430" height="932" rx="20" fill="#090D3C"/>
<path d="M234.936 393L254.493 412.64L209.661 413.138C209.661 413.138 172.037 418.11 180.987 458.468C180.987 458.468 169.883 445.043 173.86 425.734C177.838 406.425 193.667 394.077 210.904 393H234.936Z" fill="#67DE13"/>
<path d="M256.151 452.004C256.234 455.899 254.908 459.462 252.919 462.777C248.775 469.738 242.974 475.042 236.511 479.848C236.179 480.097 235.433 480.097 235.102 479.848C228.472 474.959 222.505 469.49 218.362 462.28C210.738 449.269 219.191 435.347 230.875 432.529C243.637 429.38 256.068 438.91 256.151 452.004ZM244.218 452.17C244.218 447.529 240.488 443.8 235.765 443.8C231.124 443.8 227.395 447.612 227.395 452.252C227.478 456.81 231.207 460.54 235.765 460.54C240.488 460.54 244.218 456.81 244.218 452.17Z" fill="white"/>
<path d="M216.456 463.026C214.964 460.457 213.97 457.805 213.307 455.236C201.705 455.07 192.423 445.623 192.423 434.021C192.423 423.662 199.799 415.044 209.578 413.138C192.838 414.712 183.473 426.645 180.739 435.513C177.175 446.949 180.904 458.468 180.904 458.468C196.07 476.865 213.307 476.451 224.163 473.55C221.262 470.318 218.693 466.838 216.456 463.026Z" fill="url(#paint0_linear_1_2)"/>
<path d="M116.74 539.292C114.337 539.292 112.182 538.795 110.11 537.883C108.038 536.971 106.298 535.645 104.806 534.071C103.315 532.414 102.072 530.59 101.243 528.436C100.414 526.281 100 524.044 100 521.557C100 518.988 100.497 516.668 101.409 514.513C102.32 512.359 103.563 510.536 105.138 508.961C106.713 507.387 108.536 506.144 110.525 505.315C112.513 504.486 114.668 503.989 116.823 503.989C119.309 503.989 121.629 504.569 123.95 505.729C126.27 506.889 128.342 508.63 130.082 511.033L124.778 513.85C123.701 512.525 122.458 511.53 121.049 510.867C119.64 510.204 118.232 509.873 116.74 509.873C115.331 509.873 113.922 510.204 112.596 510.784C111.27 511.364 110.11 512.193 109.116 513.27C108.121 514.348 107.293 515.591 106.713 517C106.132 518.408 105.801 519.983 105.801 521.723C105.801 523.298 106.05 524.872 106.63 526.281C107.21 527.69 107.956 528.933 108.95 530.01C109.944 531.088 111.105 531.916 112.431 532.496C113.757 533.076 115.165 533.408 116.657 533.408C117.651 533.408 118.646 533.242 119.64 532.911C120.635 532.579 121.546 532.165 122.375 531.502C123.204 530.922 124.032 530.176 124.695 529.347C125.358 528.519 125.938 527.524 126.353 526.447H120.138V521.226H133.397C133.48 523.712 133.065 526.032 132.237 528.187C131.408 530.342 130.165 532.331 128.673 533.988C127.099 535.645 125.358 536.971 123.287 537.883C121.381 538.795 119.143 539.292 116.74 539.292Z" fill="white"/>
<path d="M149.142 539.292C146.905 539.292 144.833 538.712 143.01 537.551C141.187 536.391 139.695 534.817 138.618 532.911C137.54 530.922 136.96 528.767 136.96 526.447C136.96 524.707 137.292 523.049 137.872 521.475C138.535 519.9 139.364 518.574 140.524 517.414C141.601 516.254 142.927 515.342 144.419 514.679C145.91 514.016 147.485 513.685 149.142 513.685C151.048 513.685 152.789 514.099 154.363 514.928C155.938 515.757 157.264 516.834 158.424 518.243C159.501 519.651 160.33 521.226 160.827 523.049C161.324 524.872 161.407 526.695 161.158 528.684H143.341C143.59 529.596 143.921 530.425 144.501 531.17C144.999 531.916 145.662 532.496 146.49 532.911C147.319 533.325 148.231 533.574 149.225 533.574C150.302 533.574 151.214 533.325 152.043 532.828C152.871 532.331 153.617 531.585 154.197 530.756L160.247 532.165C159.252 534.32 157.761 536.06 155.772 537.469C153.783 538.546 151.628 539.292 149.142 539.292ZM143.176 523.961H155.192C155.026 522.966 154.612 522.138 154.032 521.309C153.452 520.48 152.706 519.9 151.877 519.403C151.048 518.906 150.137 518.657 149.142 518.657C148.148 518.657 147.236 518.906 146.408 519.32C145.579 519.817 144.916 520.397 144.336 521.226C143.756 522.138 143.424 522.966 143.176 523.961Z" fill="white"/>
<path d="M176.49 539.292C174.252 539.292 172.18 538.712 170.357 537.551C168.534 536.391 167.042 534.817 165.965 532.911C164.888 531.005 164.308 528.85 164.308 526.447C164.308 524.624 164.639 522.966 165.219 521.475C165.882 519.9 166.711 518.574 167.871 517.414C169.031 516.254 170.274 515.342 171.766 514.679C173.258 514.016 174.832 513.685 176.49 513.685C178.727 513.685 180.799 514.265 182.622 515.425C184.445 516.585 185.937 518.16 187.014 520.066C188.091 522.055 188.672 524.209 188.672 526.53C188.672 528.27 188.34 529.927 187.76 531.502C187.097 533.076 186.268 534.402 185.108 535.563C184.031 536.723 182.705 537.634 181.213 538.297C179.721 538.96 178.147 539.292 176.49 539.292ZM176.49 533.325C177.65 533.325 178.727 532.994 179.721 532.414C180.633 531.751 181.379 530.922 181.959 529.927C182.539 528.85 182.788 527.773 182.788 526.53C182.788 525.287 182.539 524.126 181.959 523.049C181.379 521.972 180.633 521.143 179.721 520.563C178.81 519.983 177.733 519.651 176.572 519.651C175.412 519.651 174.335 519.983 173.423 520.563C172.512 521.226 171.766 522.055 171.186 523.132C170.606 524.209 170.357 525.369 170.357 526.53C170.357 527.856 170.606 529.016 171.186 530.01C171.766 531.088 172.512 531.916 173.506 532.496C174.335 532.994 175.329 533.325 176.49 533.325Z" fill="white"/>
<path d="M220.577 539.292C218.256 539.292 216.102 538.795 214.03 537.883C211.958 536.971 210.218 535.728 208.643 534.071C207.069 532.414 205.909 530.59 204.997 528.436C204.085 526.281 203.671 524.044 203.671 521.557C203.671 519.071 204.085 516.834 204.997 514.679C205.826 512.525 207.069 510.701 208.643 509.044C210.218 507.387 211.958 506.144 214.03 505.232C216.102 504.32 218.256 503.823 220.577 503.823C223.311 503.823 225.88 504.486 228.201 505.729C230.521 506.972 232.427 508.713 234.002 510.867L228.698 513.685C227.704 512.525 226.543 511.53 225.135 510.867C223.726 510.121 222.234 509.79 220.577 509.79C219.085 509.79 217.676 510.121 216.35 510.701C215.024 511.282 213.864 512.193 212.87 513.27C211.875 514.348 211.129 515.591 210.549 517C209.969 518.408 209.721 519.9 209.721 521.557C209.721 523.215 209.969 524.707 210.549 526.115C211.129 527.524 211.875 528.767 212.87 529.845C213.864 530.922 215.024 531.751 216.35 532.414C217.676 532.994 219.085 533.325 220.577 533.325C222.234 533.325 223.726 532.994 225.135 532.248C226.543 531.502 227.704 530.59 228.698 529.347L234.002 532.248C232.51 534.402 230.521 536.06 228.201 537.386C225.88 538.629 223.311 539.292 220.577 539.292Z" fill="white"/>
<path d="M242.372 511.116C241.46 511.116 240.714 510.867 240.134 510.287C239.554 509.707 239.223 508.961 239.223 508.132C239.223 507.304 239.554 506.558 240.134 505.978C240.714 505.398 241.46 505.066 242.289 505.066C243.117 505.066 243.863 505.398 244.443 505.978C245.023 506.558 245.355 507.304 245.355 508.132C245.355 509.044 245.023 509.707 244.443 510.287C243.863 510.867 243.2 511.116 242.372 511.116ZM239.388 514.265H245.355V538.629H239.388V514.265Z" fill="white"/>
<path d="M251.156 538.629V514.265H257.123V516.419C257.951 515.508 258.946 514.845 260.106 514.348C261.266 513.85 262.509 513.602 263.835 513.602C264.747 513.602 265.658 513.768 266.487 514.016L264.167 519.983C263.586 519.734 262.924 519.651 262.343 519.651C261.349 519.651 260.52 519.9 259.692 520.314C258.863 520.812 258.283 521.392 257.786 522.22C257.288 523.049 257.123 523.878 257.123 524.872V538.712H251.156V538.629Z" fill="white"/>
<path d="M285.05 531.253L290.437 534.154C289.276 535.645 287.868 536.889 286.21 537.8C284.553 538.712 282.647 539.209 280.658 539.209C278.42 539.209 276.349 538.629 274.525 537.469C272.702 536.308 271.211 534.734 270.133 532.828C269.056 530.922 268.476 528.767 268.476 526.364C268.476 524.541 268.807 522.883 269.387 521.392C270.05 519.817 270.879 518.491 272.039 517.331C273.199 516.171 274.443 515.259 275.934 514.596C277.426 513.933 279 513.602 280.658 513.602C282.647 513.602 284.47 514.099 286.21 515.011C287.868 515.922 289.276 517.165 290.437 518.74L285.05 521.64C284.47 520.977 283.807 520.48 283.061 520.149C282.315 519.817 281.487 519.651 280.658 519.651C279.498 519.651 278.42 519.983 277.509 520.646C276.597 521.309 275.851 522.138 275.271 523.215C274.691 524.292 274.443 525.37 274.443 526.613C274.443 527.856 274.691 528.933 275.271 530.01C275.851 531.088 276.597 531.916 277.509 532.496C278.42 533.159 279.498 533.408 280.658 533.408C281.487 533.408 282.315 533.242 283.061 532.828C283.807 532.414 284.47 531.916 285.05 531.253Z" fill="white"/>
<path d="M294.829 538.629V502H300.795V538.546H294.829V538.629Z" fill="white"/>
<path d="M317.369 539.292C315.132 539.292 313.06 538.712 311.237 537.551C309.414 536.391 307.922 534.817 306.845 532.911C305.768 530.922 305.188 528.767 305.188 526.447C305.188 524.707 305.519 523.049 306.099 521.475C306.762 519.9 307.591 518.574 308.751 517.414C309.911 516.254 311.154 515.342 312.646 514.679C314.138 514.016 315.712 513.685 317.369 513.685C319.276 513.685 321.016 514.099 322.59 514.928C324.165 515.757 325.491 516.834 326.651 518.243C327.728 519.651 328.557 521.226 329.054 523.049C329.551 524.872 329.634 526.695 329.386 528.684H311.569C311.817 529.596 312.149 530.425 312.729 531.17C313.226 531.916 313.889 532.496 314.718 532.911C315.546 533.325 316.458 533.574 317.452 533.574C318.53 533.574 319.441 533.325 320.27 532.828C321.099 532.331 321.845 531.585 322.425 530.756L328.474 532.165C327.48 534.32 325.988 536.06 323.999 537.469C322.01 538.546 319.773 539.292 317.369 539.292ZM311.32 523.961H323.336C323.17 522.966 322.756 522.138 322.176 521.309C321.596 520.48 320.85 519.9 320.021 519.403C319.193 518.906 318.281 518.657 317.287 518.657C316.292 518.657 315.381 518.906 314.552 519.32C313.723 519.817 313.06 520.397 312.48 521.226C311.983 522.138 311.569 522.966 311.32 523.961Z" fill="white"/>
<circle cx="355" cy="77" r="155.5" stroke="url(#paint1_linear_1_2)" stroke-width="125"/>
<circle cx="-69" cy="238" r="183" stroke="url(#paint2_linear_1_2)" stroke-width="70"/>
<circle cx="117" cy="932" r="272" stroke="url(#paint3_linear_1_2)" stroke-width="130"/>
</g>
<defs>
<linearGradient id="paint0_linear_1_2" x1="222.726" y1="464.508" x2="186.642" y2="426.919" gradientUnits="userSpaceOnUse">
<stop stop-color="#8CF51E"/>
<stop offset="1" stop-color="#2B9300"/>
</linearGradient>
<linearGradient id="paint1_linear_1_2" x1="355" y1="-7.5" x2="355" y2="295" gradientUnits="userSpaceOnUse">
<stop stop-color="white" stop-opacity="0"/>
<stop offset="1" stop-color="white" stop-opacity="0.1"/>
</linearGradient>
<linearGradient id="paint2_linear_1_2" x1="-22" y1="244" x2="149" y2="248.024" gradientUnits="userSpaceOnUse">
<stop stop-color="white" stop-opacity="0"/>
<stop offset="1" stop-color="white" stop-opacity="0.1"/>
</linearGradient>
<linearGradient id="paint3_linear_1_2" x1="307" y1="665" x2="63" y2="885" gradientUnits="userSpaceOnUse">
<stop stop-color="white" stop-opacity="0.1"/>
<stop offset="1" stop-color="white" stop-opacity="0.01"/>
</linearGradient>
<clipPath id="clip0_1_2">
<rect width="430" height="932" rx="20" fill="white"/>
</clipPath>
</defs>
</svg>
